<?xml version="1.0" encoding="UTF-8"?>
<!-- Generated by Pixelmator Pro 3.6.15 -->
<svg width="1024" height="1024" viewBox="0 0 1024 1024" xmlns="http://www.w3.org/2000/svg">
    <path id="Path" fill="#000000" fill-rule="evenodd" stroke="none" d="M 512 0 C 229.119995 0 0 229.119995 0 512 C 0 738.559998 146.559998 929.919983 350.079987 997.76001 C 375.679993 1002.23999 385.279999 986.880005 385.279999 973.440002 C 385.279999 961.280029 384.640015 920.960022 384.640015 878.080017 C 256 901.76001 222.720001 846.719971 212.479996 817.919983 C 206.720001 803.200012 181.759995 757.76001 160 745.599976 C 142.080002 736 116.480003 712.320007 159.360001 711.679993 C 199.679993 711.039978 228.479996 748.799988 238.080002 764.159973 C 284.160004 841.599976 357.76001 819.840027 387.200012 806.400024 C 391.679993 773.119995 405.119995 750.719971 419.839996 737.919983 C 305.920013 725.119995 186.880005 680.960022 186.880005 485.119995 C 186.880005 429.440002 206.720001 383.359985 239.360001 347.52002 C 234.240005 334.719971 216.320007 282.23999 244.479996 211.839966 C 244.479996 211.839966 287.359985 198.400024 385.279999 264.320007 C 426.23999 252.799988 469.76001 247.039978 513.280029 247.039978 C 556.799988 247.039978 600.320007 252.799988 641.280029 264.320007 C 739.200012 197.76001 782.080017 211.839966 782.080017 211.839966 C 810.23999 282.23999 792.320007 334.719971 787.200012 347.52002 C 819.840027 383.359985 839.679993 428.799988 839.679993 485.119995 C 839.679993 681.599976 720 725.119995 606.080017 737.919983 C 624.640015 753.919983 640.640015 784.640015 640.640015 832.640015 C 640.640015 901.119995 640 956.159973 640 973.440002 C 640 986.880005 649.599976 1002.880005 675.200012 997.76001 C 877.440002 929.919983 1024 737.919983 1024 512 C 1024 229.119995 794.880005 0 512 0 Z"/>
</svg>
