<?xml version="1.0" encoding="UTF-8"?>
<!-- Generated by Pixelmator Pro 3.6.15 -->
<svg width="666" height="666" viewBox="0 0 666 666" xmlns="http://www.w3.org/2000/svg">
    <path id="Path" fill="#000000" fill-rule="evenodd" stroke="none" d="M 4.362999 79.736694 C 11.008331 30.654358 54.318665 -0.333313 99.334656 -0.333313 L 184.949326 -0.333313 C 227.99231 -0.333313 266.206329 27.209656 279.816681 68.044006 L 314.800018 172.987671 C 329.833313 218.094299 303.286652 266.453339 257.160675 277.986664 C 245.882019 280.806671 241.991669 294.850006 250.212341 303.073303 L 362.926697 415.786652 C 371.149994 424.01001 385.193329 420.116669 388.013336 408.839996 C 399.546661 362.713348 447.906677 336.166687 493.013306 351.199982 L 597.956665 386.183319 C 638.790039 399.793335 666.333313 438.006653 666.333313 481.049988 L 666.333313 566.666687 C 666.333313 611.679993 635.34668 654.993286 586.263367 661.636658 C 563.380005 664.736694 540.033325 666.333313 516.333313 666.333313 C 230.986359 666.333313 -0.333336 435.013336 -0.333336 149.666687 C -0.333336 125.966003 1.264664 102.621033 4.362999 79.736694 Z"/>
</svg>
